<mxfile host="app.diagrams.net" modified="2024-02-14T15:01:52.899Z" agent="Mozilla/5.0 (Windows NT 10.0; Win64; x64) AppleWebKit/537.36 (KHTML, like Gecko) Chrome/121.0.0.0 Safari/537.36" version="23.1.3" etag="JViZZ6FQMZ_rKXVL1I46" type="github">
  <diagram name="Страница — 1" id="Z9grpINIS1WZcXDOlc7x">
    <mxGraphModel>
      <root>
        <mxCell id="0" />
        <mxCell id="1" parent="0" />
      </root>
    </mxGraphModel>
  </diagram>
</mxfile>
